{"title":"Wrong Turn At Tahoe (2010)(MPEG-4)(IPONE)(NL SUBS) 2Lions-Team","uid":5167812,"size":879917180,"categoryP":"video","categoryS":"handheld","magnet":"?xt=urn:btih:a8ac25d2c7df0d827c37b9c4e1d11e8280be2ab6&amp;dn=Wrong+Turn+At+Tahoe+%282010%29%28MPEG-4%29%28IPONE%29%28NL+SUBS%29+2Lions-Team&amp;tr=udp%3A%2F%2Ftracker.openbittorrent.com%3A80&amp;tr=udp%3A%2F%2Fopen.demonii.com%3A1337&amp;tr=udp%3A%2F%2Ftracker.coppersurfer.tk%3A6969&amp;tr=udp%3A%2F%2Fexodus.desync.com%3A6969","seeders":0,"leechers":2,"uploader":"Pioen","files":-1,"time":1258508423,"description":"Wrong Turn At Tahoe (2010)(Dutch)(MPEG-4)(IPONE) 2Lions-Team\n\n \n\nliefde.Eer.kracht. angst voor de dood..mensen leven voor verschillende redenen.\nhet leven wordt een echte uitdaging als je leeft voor vergelding. Joshua (Oscar winner Cuba Gooding Jr.)\nhij leeft in een keiharde vijandige wereld met mooie vrouwen.\nmaar als hij zichzelf terugvindt tijdens een strijd met een meest dominante drugs baas,\ndan weet hij dat hierdoor deze geen weg terug is \n\n\n\n\nPLOT\n\nWrong Turn At Tahoe (2010)\n\nLove. Honor. Power. Fear of death... People live for all kinds of reasons. \nLife becomes the ultimate battle when all you're living for is revenge. Joshua (Oscar winner Cuba Gooding Jr.), a \nhard-nosed collector for a ruthless mob boss (Miguel Ferrer), \nlives in a world filled with brutal violence and beautiful women. \nBut when he finds himself in the middle of a power struggle with the most dominant drug lord in the business (Harvey Keitel), \nJoshua knows that one false move could cause everything to come crashing down. Packed with intense action and gripping suspense, \nthis explosive tale of vengeance shows how just one wrong turn can lead to a dead end.\n\nSource.............: Retail | NTSC | DVD9\nAudio : English\nSubs: Dutch (hardcoded)\n\nFormat                           : MPEG-4\nFormat profile                   : Base Media\nCodec ID                         : isom\nFile size                        : 839 MiB\nDuration                         : 1h 30mn\nOverall bit rate                 : 1 293 Kbps\n\n\nVideo\nID                               : 1\nFormat                           : MPEG-4 Visual\nFormat profile                   : Simple@L1\nFormat settings, BVOP            : No\nFormat settings, QPel            : No\nFormat settings, GMC             : No warppoints\nFormat settings, Matrix          : Default (H.263)\nCodec ID                         : 20\nDuration                         : 1h 30mn\nBit rate mode                    : Variable\nBit rate                         : 1 161 Kbps\nWidth                            : 720 pixels\nHeight                           : 406 pixels\nDisplay aspect ratio             : 16/9\nFrame rate mode                  : Constant\nFrame rate                       : 23.976 fps\nResolution                       : 24 bits\nColorimetry                      : 4:2:0\nScan type                        : Progressive\nBits/(Pixel*Frame)               : 0.166\nStream size                      : 753 MiB (90%)\nWriting library                  : Lavc51.40.4\n\n\nAudio\nID                               : 2\nFormat                           : AAC\nFormat/Info                      : Advanced Audio Codec\nFormat version                   : Version 4\nFormat profile                   : LC\nFormat settings, SBR             : No\nCodec ID                         : 40\nDuration                         : 1h 30mn\nBit rate mode                    : Variable\nBit rate                         : 128 Kbps\nChannel(s)                       : 2 channels\nChannel positions                : L R\nSampling rate                    : 48.0 KHz\nResolution                       : 16 bits\nStream size                      : 82.9 MiB (10%)\n\n\nWeblink : http://www.imdb.com/title/tt1393000 \n\n*****************************************\n\nBrought to you by\nPioen\n2Lions Team\n\nmeer zien??\nKom dan eens kijken op ons forum \n &lt;a href=&quot;\nhttp://www.2lions.ons-forum.nl&quot; rel=&quot;nofollow&quot; target=&quot;_NEW&quot;&gt;\nhttp://www.2lions.ons-forum.nl&lt;/a&gt;\n\n\n******************************************\n\nDON T HIT AND RUN Niet gelijk afhaken als de film binnen is blijf seeden. \nDon`t quit after you finished the download, but keep seeding.","torrent":{"xt":"urn:btih:a8ac25d2c7df0d827c37b9c4e1d11e8280be2ab6","amp;dn":"Wrong+Turn+At+Tahoe+%282010%29%28MPEG-4%29%28IPONE%29%28NL+SUBS%29+2Lions-Team","amp;tr":["udp%3A%2F%2Ftracker.openbittorrent.com%3A80","udp%3A%2F%2Fopen.demonii.com%3A1337","udp%3A%2F%2Ftracker.coppersurfer.tk%3A6969","udp%3A%2F%2Fexodus.desync.com%3A6969"],"infoHash":"a8ac25d2c7df0d827c37b9c4e1d11e8280be2ab6","infoHashBuffer":{"type":"Buffer","data":[168,172,37,210,199,223,13,130,124,55,185,196,225,209,30,130,128,190,42,182]},"announce":[],"urlList":[]}}